<?xml version="1.0" encoding="us-ascii" standalone="no"?><svg xmlns="http://www.w3.org/2000/svg" xmlns:xlink="http://www.w3.org/1999/xlink" contentStyleType="text/css" height="648px" preserveAspectRatio="none" style="width:574px;height:648px;background:#FFFFFF;" version="1.1" viewBox="0 0 574 648" width="574px" zoomAndPan="magnify"><defs/><g><!--cluster M?dulo de Cocina(COC)--><g id="cluster_M&#243;dulo de Cocina(COC)"><rect fill="none" height="630" rx="2.5" ry="2.5" style="stroke:#181818;stroke-width:1.0;" width="225" x="154" y="12"/><text fill="#000000" font-family="sans-serif" font-size="14" font-weight="bold" lengthAdjust="spacing" textLength="163" x="185" y="28.9659">M&#243;dulo de Cocina(COC)</text></g><!--cluster Sistemas Externos--><g id="cluster_Sistemas Externos"><rect fill="none" height="418" rx="2.5" ry="2.5" style="stroke:#181818;stroke-width:1.0;" width="161" x="407" y="7"/><text fill="#000000" font-family="sans-serif" font-size="14" font-weight="bold" lengthAdjust="spacing" textLength="127" x="424" y="23.9659">Sistemas Externos</text></g><g id="elem_CUCOC001"><ellipse cx="266.2965" cy="337.9492" fill="#F1F1F1" rx="72.2965" ry="43.4492" style="stroke:#181818;stroke-width:0.5;"/><text fill="#000000" font-family="sans-serif" font-size="14" lengthAdjust="spacing" textLength="86" x="223.2965" y="322.3132">CU-COC-001:</text><text fill="#000000" font-family="sans-serif" font-size="14" lengthAdjust="spacing" textLength="70" x="231.2965" y="341.3811">Autenticar</text><text fill="#000000" font-family="sans-serif" font-size="14" lengthAdjust="spacing" textLength="64" x="234.2965" y="360.4491">en el KDS</text></g><g id="elem_CUCOC002"><ellipse cx="266.3381" cy="93.9492" fill="#F1F1F1" rx="96.3381" ry="43.4492" style="stroke:#181818;stroke-width:0.5;"/><text fill="#000000" font-family="sans-serif" font-size="14" lengthAdjust="spacing" textLength="86" x="223.3381" y="78.3132">CU-COC-002:</text><text fill="#000000" font-family="sans-serif" font-size="14" lengthAdjust="spacing" textLength="120" x="206.3381" y="97.3811">Visualizar Tablero</text><text fill="#000000" font-family="sans-serif" font-size="14" lengthAdjust="spacing" textLength="27" x="252.8381" y="116.4491">KDS</text></g><g id="elem_CUCOC003"><ellipse cx="266.7315" cy="459.9492" fill="#F1F1F1" rx="85.7315" ry="43.4492" style="stroke:#181818;stroke-width:0.5;"/><text fill="#000000" font-family="sans-serif" font-size="14" lengthAdjust="spacing" textLength="86" x="223.7315" y="444.3132">CU-COC-003:</text><text fill="#000000" font-family="sans-serif" font-size="14" lengthAdjust="spacing" textLength="105" x="214.2315" y="463.3811">Completar Paso</text><text fill="#000000" font-family="sans-serif" font-size="14" lengthAdjust="spacing" textLength="102" x="215.7315" y="482.4491">de Preparaci&#243;n</text></g><g id="elem_CUCOC004"><ellipse cx="266.5955" cy="215.9492" fill="#F1F1F1" rx="92.0955" ry="43.4492" style="stroke:#181818;stroke-width:0.5;"/><text fill="#000000" font-family="sans-serif" font-size="14" lengthAdjust="spacing" textLength="86" x="223.5955" y="200.3132">CU-COC-004:</text><text fill="#000000" font-family="sans-serif" font-size="14" lengthAdjust="spacing" textLength="114" x="209.5955" y="219.3811">Consultar Receta</text><text fill="#000000" font-family="sans-serif" font-size="14" lengthAdjust="spacing" textLength="64" x="234.5955" y="238.4491">Completa</text></g><g id="elem_CUCOC005"><ellipse cx="266.2965" cy="581.9492" fill="#F1F1F1" rx="72.2965" ry="43.4492" style="stroke:#181818;stroke-width:0.5;"/><text fill="#000000" font-family="sans-serif" font-size="14" lengthAdjust="spacing" textLength="86" x="223.2965" y="566.3132">CU-COC-005:</text><text fill="#000000" font-family="sans-serif" font-size="14" lengthAdjust="spacing" textLength="82" x="225.2965" y="585.3811">Sub-asignar</text><text fill="#000000" font-family="sans-serif" font-size="14" lengthAdjust="spacing" textLength="71" x="230.7965" y="604.4491">Estaciones</text></g><!--entity caja--><g id="elem_caja"><ellipse cx="487.5" cy="72.5679" fill="#F1F1F1" rx="8" ry="8" style="stroke:#181818;stroke-width:0.5;"/><path d="M487.5,80.5679 L487.5,107.5679 M474.5,88.5679 L500.5,88.5679 M487.5,107.5679 L474.5,122.5679 M487.5,107.5679 L500.5,122.5679 " fill="none" style="stroke:#181818;stroke-width:0.5;"/><text fill="#000000" font-family="sans-serif" font-size="14" lengthAdjust="spacing" textLength="105" x="435" y="139.0339">M&#243;dulo de Caja</text><text fill="#000000" font-family="sans-serif" font-size="14" font-style="italic" lengthAdjust="spacing" textLength="58" x="458.5" y="59.9659">&#171;System&#187;</text></g><!--entity cliente--><g id="elem_cliente"><ellipse cx="487.5" cy="205.5679" fill="#F1F1F1" rx="8" ry="8" style="stroke:#181818;stroke-width:0.5;"/><path d="M487.5,213.5679 L487.5,240.5679 M474.5,221.5679 L500.5,221.5679 M487.5,240.5679 L474.5,255.5679 M487.5,240.5679 L500.5,255.5679 " fill="none" style="stroke:#181818;stroke-width:0.5;"/><text fill="#000000" font-family="sans-serif" font-size="14" lengthAdjust="spacing" textLength="127" x="424" y="272.0339">M&#243;dulo del Cliente</text><text fill="#000000" font-family="sans-serif" font-size="14" font-style="italic" lengthAdjust="spacing" textLength="58" x="458.5" y="192.9659">&#171;System&#187;</text></g><!--entity delivery--><g id="elem_delivery"><ellipse cx="487.5" cy="338.5679" fill="#F1F1F1" rx="8" ry="8" style="stroke:#181818;stroke-width:0.5;"/><path d="M487.5,346.5679 L487.5,373.5679 M474.5,354.5679 L500.5,354.5679 M487.5,373.5679 L474.5,388.5679 M487.5,373.5679 L500.5,388.5679 " fill="none" style="stroke:#181818;stroke-width:0.5;"/><text fill="#000000" font-family="sans-serif" font-size="14" lengthAdjust="spacing" textLength="129" x="423" y="405.0339">M&#243;dulo de Entrega</text><text fill="#000000" font-family="sans-serif" font-size="14" font-style="italic" lengthAdjust="spacing" textLength="58" x="458.5" y="325.9659">&#171;System&#187;</text></g><!--entity kitchen--><g id="elem_kitchen"><ellipse cx="58" cy="337" fill="#F1F1F1" rx="8" ry="8" style="stroke:#181818;stroke-width:0.5;"/><path d="M58,345 L58,372 M45,353 L71,353 M58,372 L45,387 M58,372 L71,387 " fill="none" style="stroke:#181818;stroke-width:0.5;"/><text fill="#000000" font-family="sans-serif" font-size="14" lengthAdjust="spacing" textLength="59" x="28.5" y="403.4659">Cocinero</text></g><!--entity sub_kitchen--><g id="elem_sub_kitchen"><ellipse cx="58" cy="481.5" fill="#F1F1F1" rx="8" ry="8" style="stroke:#181818;stroke-width:0.5;"/><path d="M58,489.5 L58,516.5 M45,497.5 L71,497.5 M58,516.5 L45,531.5 M58,516.5 L71,531.5 " fill="none" style="stroke:#181818;stroke-width:0.5;"/><text fill="#000000" font-family="sans-serif" font-size="14" lengthAdjust="spacing" textLength="87" x="6" y="547.9659">Cocinero con</text><text fill="#000000" font-family="sans-serif" font-size="14" lengthAdjust="spacing" textLength="104" x="6" y="567.0339">Sub-asignaci&#243;n</text></g><!--reverse link kitchen to sub_kitchen--><g id="link_kitchen_sub_kitchen"><path d="M58,425.66 C58,445.53 58,451.78 58,472.83 " fill="none" id="kitchen-backto-sub_kitchen" style="stroke:#181818;stroke-width:1.0;"/><polygon fill="none" points="58,407.66,52,425.66,64,425.66,58,407.66" style="stroke:#181818;stroke-width:1.0;"/></g><!--link CUCOC004 to CUCOC002--><g id="link_CUCOC004_CUCOC002"><path d="M267,172.3 C267,161.09 267,155.02 267,143.81 " fill="none" id="CUCOC004-to-CUCOC002" style="stroke:#181818;stroke-width:1.0;stroke-dasharray:7.0,7.0;"/><polygon fill="#181818" points="267,137.81,263,146.81,267,142.81,271,146.81,267,137.81" style="stroke:#181818;stroke-width:1.0;"/><text fill="#000000" font-family="sans-serif" font-size="13" lengthAdjust="spacing" textLength="56" x="268" y="155.697">&#171;extend&#187;</text></g><!--link kitchen to CUCOC001--><g id="link_kitchen_CUCOC001"><path d="M87.87,355 C116.92,355 162.05,355 199.68,355 " fill="none" id="kitchen-CUCOC001" style="stroke:#181818;stroke-width:1.0;"/></g><!--link kitchen to CUCOC002--><g id="link_kitchen_CUCOC002"><path d="M58,328.45 C58,252.57 58,94 58,94 C58,94 115.34,94 169.88,94 " fill="none" id="kitchen-CUCOC002" style="stroke:#181818;stroke-width:1.0;"/></g><!--link kitchen to CUCOC003--><g id="link_kitchen_CUCOC003"><path d="M87.82,390.17 C126.21,390.17 188,390.17 188,390.17 C188,390.17 188,422.06 188,442.74 " fill="none" id="kitchen-CUCOC003" style="stroke:#181818;stroke-width:1.0;"/></g><!--link sub_kitchen to CUCOC005--><g id="link_sub_kitchen_CUCOC005"><path d="M110.08,554.75 C140.47,554.75 178.84,554.75 209.97,554.75 " fill="none" id="sub_kitchen-CUCOC005" style="stroke:#181818;stroke-width:1.0;"/></g><!--link CUCOC002 to cliente--><g id="link_CUCOC002_cliente"><path d="M357.81,108.5 C395.26,108.5 430,108.5 430,108.5 C430,108.5 430,145.22 430,177.77 " fill="none" id="CUCOC002-cliente" style="stroke:#181818;stroke-width:1.0;"/></g><!--link CUCOC002 to caja--><g id="link_CUCOC002_caja"><path d="M357.67,79.5 C383.94,79.5 411.72,79.5 434.82,79.5 " fill="none" id="CUCOC002-caja" style="stroke:#181818;stroke-width:1.0;"/></g><!--link CUCOC003 to delivery--><g id="link_CUCOC003_delivery"><path d="M346,443.93 C346,425.81 346,398.83 346,398.83 C346,398.83 385.64,398.83 422.96,398.83 " fill="none" id="CUCOC003-delivery" style="stroke:#181818;stroke-width:1.0;"/></g><!--SRC=[XPBDRi8m3CVlUGghf-tGYV5nGGXfwZXDqz0OEo5D8NYG4HoKfDFOnrFn2BpOt9P2OQ3rqkWV__vsR1jy3H0iE3sT1PXeXofeIqBukQQbT781HXE6rHB1kZ2pGaWLh8CeiOeld8r0UfZhe6P8ntUWB8rea8vZwVMKfDARDUM0JySl9RJzG-SxFj15LeoagK68xZVhIMeiJ11oStcHF2IN4Nm9u2_rgAJdi6GOinxNQjVj4Tsa0Ibe9Ts8s1uDtDqEykp9aACuw0nSP_XP-rGQ_IaTFCcnuSUCw0Yldy4RZ2TsiJGOcEvBpoZNtNUODNJVWwrDuunDCxSXdvhCvX4Ls-sDgmxDCmwjThNvt8MU3vpV4legtX8vNvh1LNVtGcX3fuCVtCT9joj-3aOoq3xWWcrwVE_8-gWOndO7gXEJRqMzYWziE5Xb91kU33UG6Cs3mm8fplzIqAFWS5haOHFzZcvLfRZuSj7YUBy1VxNw2QqXAejPqRbrkrQnkYtsKECtbq8Z4yhYVW40]--></g></svg>