<?xml version="1.0" encoding="us-ascii" standalone="no"?><svg xmlns="http://www.w3.org/2000/svg" xmlns:xlink="http://www.w3.org/1999/xlink" contentStyleType="text/css" height="1782px" preserveAspectRatio="none" style="width:775px;height:1782px;background:#FFFFFF;" version="1.1" viewBox="0 0 775 1782" width="775px" zoomAndPan="magnify"><defs/><g><rect fill="none" height="24.5158" style="stroke:none;stroke-width:1.0;" width="742.5" x="15" y="13.774"/><ellipse cx="79.5" cy="53.2898" fill="#222222" rx="10" ry="10" style="stroke:#222222;stroke-width:1.0;"/><rect fill="#FFFFFF" height="36.3441" rx="12.5" ry="12.5" style="stroke:#2C3E50;stroke-width:0.5;" width="108" x="25.5" y="83.2898"/><text fill="#000000" font-family="Arial" font-size="12" lengthAdjust="spacing" textLength="88" x="35.5" y="106.1179">Finalizar pedido</text><rect fill="#FFFFFF" height="36.3441" rx="12.5" ry="12.5" style="stroke:#2C3E50;stroke-width:0.5;" width="117" x="21" y="1691.9476"/><text fill="#000000" font-family="Arial" font-size="12" lengthAdjust="spacing" textLength="97" x="31" y="1714.7757">Navegar a CLI-13</text><ellipse cx="79.5" cy="1759.2918" fill="none" rx="11" ry="11" style="stroke:#222222;stroke-width:1.0;"/><ellipse cx="79.5" cy="1759.2918" fill="#222222" rx="6" ry="6" style="stroke:#222222;stroke-width:1.0;"/><line style="stroke:#000000;stroke-width:1.5;" x1="15" x2="15" y1="13.774" y2="1770.2918"/><rect fill="#FFFFFF" height="36.3441" rx="12.5" ry="12.5" style="stroke:#2C3E50;stroke-width:0.5;" width="149" x="256.5" y="139.6339"/><text fill="#000000" font-family="Arial" font-size="12" lengthAdjust="spacing" textLength="129" x="266.5" y="162.462">Validar token de sesi&#243;n</text><rect fill="#FFFFFF" height="36.3441" rx="12.5" ry="12.5" style="stroke:#2C3E50;stroke-width:0.5;" width="181" x="240.5" y="245.469"/><text fill="#000000" font-family="Arial" font-size="12" lengthAdjust="spacing" textLength="161" x="250.5" y="268.2971">Redirigir a CLI-01 (HTTP 401)</text><ellipse cx="331" cy="320.141" fill="none" rx="11" ry="11" style="stroke:#222222;stroke-width:1.0;"/><ellipse cx="331" cy="320.141" fill="#222222" rx="6" ry="6" style="stroke:#222222;stroke-width:1.0;"/><polygon fill="#F4F6F7" points="291,195.978,371,195.978,383,207.978,371,219.978,291,219.978,279,207.978,291,195.978" style="stroke:#2C3E50;stroke-width:0.5;"/><text fill="#000000" font-family="sans-serif" font-size="11" lengthAdjust="spacing" textLength="15" x="335" y="231.737">No</text><text fill="#000000" font-family="Arial" font-size="12" lengthAdjust="spacing" textLength="80" x="291" y="212.6341">&#191;Token v&#225;lido?</text><text fill="#000000" font-family="sans-serif" font-size="11" lengthAdjust="spacing" textLength="9" x="383" y="204.7551">S&#237;</text><rect fill="#FFFFFF" height="36.3441" rx="12.5" ry="12.5" style="stroke:#2C3E50;stroke-width:0.5;" width="146" x="258" y="373.141"/><text fill="#000000" font-family="Arial" font-size="12" lengthAdjust="spacing" textLength="126" x="268" y="395.9691">Verificar CarritoSesion</text><rect fill="#FFFFFF" height="36.3441" rx="12.5" ry="12.5" style="stroke:#2C3E50;stroke-width:0.5;" width="162" x="250" y="478.9761"/><text fill="#000000" font-family="Arial" font-size="12" lengthAdjust="spacing" textLength="142" x="260" y="501.8042">Mostrar error (HTTP 400)</text><ellipse cx="331" cy="553.6482" fill="none" rx="11" ry="11" style="stroke:#222222;stroke-width:1.0;"/><ellipse cx="331" cy="553.6482" fill="#222222" rx="6" ry="6" style="stroke:#222222;stroke-width:1.0;"/><polygon fill="#F4F6F7" points="282,429.4852,380,429.4852,392,441.4852,380,453.4852,282,453.4852,270,441.4852,282,429.4852" style="stroke:#2C3E50;stroke-width:0.5;"/><text fill="#000000" font-family="sans-serif" font-size="11" lengthAdjust="spacing" textLength="15" x="335" y="465.2441">No</text><text fill="#000000" font-family="Arial" font-size="12" lengthAdjust="spacing" textLength="98" x="282" y="446.1412">&#191;Carrito no vac&#237;o?</text><text fill="#000000" font-family="sans-serif" font-size="11" lengthAdjust="spacing" textLength="9" x="392" y="438.2622">S&#237;</text><rect fill="#FFFFFF" height="36.3441" rx="12.5" ry="12.5" style="stroke:#2C3E50;stroke-width:0.5;" width="145" x="258.5" y="606.6482"/><text fill="#000000" font-family="Arial" font-size="12" lengthAdjust="spacing" textLength="125" x="268.5" y="629.4762">Consultar stock_actual</text><rect fill="#FFFFFF" height="36.3441" rx="12.5" ry="12.5" style="stroke:#2C3E50;stroke-width:0.5;" width="162" x="250" y="712.4832"/><text fill="#000000" font-family="Arial" font-size="12" lengthAdjust="spacing" textLength="142" x="260" y="735.3113">Mostrar error (HTTP 409)</text><ellipse cx="331" cy="787.1553" fill="none" rx="11" ry="11" style="stroke:#222222;stroke-width:1.0;"/><ellipse cx="331" cy="787.1553" fill="#222222" rx="6" ry="6" style="stroke:#222222;stroke-width:1.0;"/><polygon fill="#F4F6F7" points="282.5,662.9923,379.5,662.9923,391.5,674.9923,379.5,686.9923,282.5,686.9923,270.5,674.9923,282.5,662.9923" style="stroke:#2C3E50;stroke-width:0.5;"/><text fill="#000000" font-family="sans-serif" font-size="11" lengthAdjust="spacing" textLength="15" x="335" y="698.7512">No</text><text fill="#000000" font-family="Arial" font-size="12" lengthAdjust="spacing" textLength="97" x="282.5" y="679.6483">&#191;Stock suficiente?</text><text fill="#000000" font-family="sans-serif" font-size="11" lengthAdjust="spacing" textLength="9" x="391.5" y="671.7693">S&#237;</text><rect fill="#FFFFFF" height="36.3441" rx="12.5" ry="12.5" style="stroke:#2C3E50;stroke-width:0.5;" width="204" x="229" y="840.1553"/><text fill="#000000" font-family="Arial" font-size="12" lengthAdjust="spacing" textLength="184" x="239" y="862.9834">Bloquear capacidad (SlotService)</text><rect fill="#FFFFFF" height="36.3441" rx="12.5" ry="12.5" style="stroke:#2C3E50;stroke-width:0.5;" width="181" x="240.5" y="945.9903"/><text fill="#000000" font-family="Arial" font-size="12" lengthAdjust="spacing" textLength="161" x="250.5" y="968.8184">Redirigir a CLI-10 (HTTP 409)</text><ellipse cx="331" cy="1023.5065" fill="none" rx="11" ry="11" style="stroke:#222222;stroke-width:1.0;"/><ellipse cx="331" cy="1023.5065" fill="#222222" rx="6" ry="6" style="stroke:#222222;stroke-width:1.0;"/><polygon fill="#F4F6F7" points="256.5,896.4994,405.5,896.4994,417.5,908.4994,405.5,920.4994,256.5,920.4994,244.5,908.4994,256.5,896.4994" style="stroke:#2C3E50;stroke-width:0.5;"/><text fill="#000000" font-family="sans-serif" font-size="11" lengthAdjust="spacing" textLength="15" x="335" y="932.2583">No</text><text fill="#000000" font-family="Arial" font-size="12" lengthAdjust="spacing" textLength="149" x="256.5" y="913.1554">&#191;Capacidad disponible &gt; 0?</text><text fill="#000000" font-family="sans-serif" font-size="11" lengthAdjust="spacing" textLength="9" x="417.5" y="905.2764">S&#237;</text><rect fill="#555555" height="6" rx="2.5" ry="2.5" style="stroke:#555555;stroke-width:1.0;" width="366" x="148" y="1583.6035"/><rect fill="#FFFFFF" height="36.3441" rx="12.5" ry="12.5" style="stroke:#2C3E50;stroke-width:0.5;" width="180" x="160" y="1609.6035"/><text fill="#000000" font-family="Arial" font-size="12" lengthAdjust="spacing" textLength="160" x="170" y="1632.4316">Emitir notificaci&#243;n (Canal RT)</text><rect fill="#FFFFFF" height="36.3441" rx="12.5" ry="12.5" style="stroke:#2C3E50;stroke-width:0.5;" width="134" x="368" y="1609.6035"/><text fill="#000000" font-family="Arial" font-size="12" lengthAdjust="spacing" textLength="114" x="378" y="1632.4316">Vaciar CarritoSesion</text><rect fill="#555555" height="6" rx="2.5" ry="2.5" style="stroke:#555555;stroke-width:1.0;" width="366" x="148" y="1665.9476"/><line style="stroke:#000000;stroke-width:1.5;" x1="142" x2="142" y1="13.774" y2="1770.2918"/><rect fill="#FFFFFF" height="36.3441" rx="12.5" ry="12.5" style="stroke:#2C3E50;stroke-width:0.5;" width="123" x="576.5" y="1076.5065"/><text fill="#000000" font-family="Arial" font-size="12" lengthAdjust="spacing" textLength="103" x="586.5" y="1099.3346">Iniciar transacci&#243;n</text><rect fill="#FFFFFF" height="36.3441" rx="12.5" ry="12.5" style="stroke:#2C3E50;stroke-width:0.5;" width="106" x="585" y="1132.8506"/><text fill="#000000" font-family="Arial" font-size="12" lengthAdjust="spacing" textLength="86" x="595" y="1155.6787">Insertar Pedido</text><rect fill="#FFFFFF" height="36.3441" rx="12.5" ry="12.5" style="stroke:#2C3E50;stroke-width:0.5;" width="132" x="572" y="1189.1947"/><text fill="#000000" font-family="Arial" font-size="12" lengthAdjust="spacing" textLength="112" x="582" y="1212.0228">Insertar ItemPedido</text><rect fill="#FFFFFF" height="36.3441" rx="12.5" ry="12.5" style="stroke:#2C3E50;stroke-width:0.5;" width="197" x="539.5" y="1245.5388"/><text fill="#000000" font-family="Arial" font-size="12" lengthAdjust="spacing" textLength="177" x="549.5" y="1268.3669">Insertar IngredienteItemPedido</text><rect fill="#FFFFFF" height="36.3441" rx="12.5" ry="12.5" style="stroke:#2C3E50;stroke-width:0.5;" width="228" x="524" y="1301.883"/><text fill="#000000" font-family="Arial" font-size="12" lengthAdjust="spacing" textLength="208" x="534" y="1324.7111">Actualizar stock_actual (Decremento)</text><rect fill="#FFFFFF" height="36.3441" rx="12.5" ry="12.5" style="stroke:#2C3E50;stroke-width:0.5;" width="171" x="552.5" y="1358.2271"/><text fill="#000000" font-family="Arial" font-size="12" lengthAdjust="spacing" textLength="151" x="562.5" y="1381.0552">Insertar PasoRecetaPedido</text><rect fill="#FFFFFF" height="36.3441" rx="12.5" ry="12.5" style="stroke:#2C3E50;stroke-width:0.5;" width="171" x="552.5" y="1414.5712"/><text fill="#000000" font-family="Arial" font-size="12" lengthAdjust="spacing" textLength="151" x="562.5" y="1437.3993">Insertar PasoPedidoEstado</text><rect fill="#FFFFFF" height="36.3441" rx="12.5" ry="12.5" style="stroke:#2C3E50;stroke-width:0.5;" width="188" x="544" y="1470.9153"/><text fill="#000000" font-family="Arial" font-size="12" lengthAdjust="spacing" textLength="168" x="554" y="1493.7434">Insertar CodigoVerificacionQR</text><rect fill="#FFFFFF" height="36.3441" rx="12.5" ry="12.5" style="stroke:#2C3E50;stroke-width:0.5;" width="206" x="535" y="1527.2594"/><text fill="#000000" font-family="Arial" font-size="12" lengthAdjust="spacing" textLength="186" x="545" y="1550.0875">Confirmar transacci&#243;n (COMMIT)</text><line style="stroke:#000000;stroke-width:1.5;" x1="518" x2="518" y1="13.774" y2="1770.2918"/><line style="stroke:#000000;stroke-width:1.5;" x1="756" x2="756" y1="13.774" y2="1770.2918"/><line style="stroke:#2C3E50;stroke-width:1.0;" x1="79.5" x2="79.5" y1="63.2898" y2="83.2898"/><polygon fill="#2C3E50" points="75.5,73.2898,79.5,83.2898,83.5,73.2898,79.5,77.2898" style="stroke:#2C3E50;stroke-width:1.0;"/><line style="stroke:#2C3E50;stroke-width:1.0;" x1="79.5" x2="79.5" y1="1728.2918" y2="1748.2918"/><polygon fill="#2C3E50" points="75.5,1738.2918,79.5,1748.2918,83.5,1738.2918,79.5,1742.2918" style="stroke:#2C3E50;stroke-width:1.0;"/><line style="stroke:#2C3E50;stroke-width:1.0;" x1="331" x2="331" y1="281.8131" y2="309.141"/><polygon fill="#2C3E50" points="327,299.141,331,309.141,335,299.141,331,303.141" style="stroke:#2C3E50;stroke-width:1.0;"/><line style="stroke:#2C3E50;stroke-width:1.0;" x1="331" x2="331" y1="219.978" y2="245.469"/><polygon fill="#2C3E50" points="327,235.469,331,245.469,335,235.469,331,239.469" style="stroke:#2C3E50;stroke-width:1.0;"/><line style="stroke:#2C3E50;stroke-width:1.0;" x1="383" x2="431.5" y1="207.978" y2="207.978"/><polygon fill="#2C3E50" points="427.5,279.141,431.5,289.141,435.5,279.141,431.5,283.141" style="stroke:#2C3E50;stroke-width:1.0;"/><line style="stroke:#2C3E50;stroke-width:1.0;" x1="431.5" x2="431.5" y1="207.978" y2="353.141"/><line style="stroke:#2C3E50;stroke-width:1.0;" x1="431.5" x2="331" y1="353.141" y2="353.141"/><line style="stroke:#2C3E50;stroke-width:1.0;" x1="331" x2="331" y1="353.141" y2="373.141"/><polygon fill="#2C3E50" points="327,363.141,331,373.141,335,363.141,331,367.141" style="stroke:#2C3E50;stroke-width:1.0;"/><line style="stroke:#2C3E50;stroke-width:1.0;" x1="331" x2="331" y1="175.978" y2="195.978"/><polygon fill="#2C3E50" points="327,185.978,331,195.978,335,185.978,331,189.978" style="stroke:#2C3E50;stroke-width:1.0;"/><line style="stroke:#2C3E50;stroke-width:1.0;" x1="331" x2="331" y1="515.3202" y2="542.6482"/><polygon fill="#2C3E50" points="327,532.6482,331,542.6482,335,532.6482,331,536.6482" style="stroke:#2C3E50;stroke-width:1.0;"/><line style="stroke:#2C3E50;stroke-width:1.0;" x1="331" x2="331" y1="453.4852" y2="478.9761"/><polygon fill="#2C3E50" points="327,468.9761,331,478.9761,335,468.9761,331,472.9761" style="stroke:#2C3E50;stroke-width:1.0;"/><line style="stroke:#2C3E50;stroke-width:1.0;" x1="392" x2="422" y1="441.4852" y2="441.4852"/><polygon fill="#2C3E50" points="418,512.6482,422,522.6482,426,512.6482,422,516.6482" style="stroke:#2C3E50;stroke-width:1.0;"/><line style="stroke:#2C3E50;stroke-width:1.0;" x1="422" x2="422" y1="441.4852" y2="586.6482"/><line style="stroke:#2C3E50;stroke-width:1.0;" x1="422" x2="331" y1="586.6482" y2="586.6482"/><line style="stroke:#2C3E50;stroke-width:1.0;" x1="331" x2="331" y1="586.6482" y2="606.6482"/><polygon fill="#2C3E50" points="327,596.6482,331,606.6482,335,596.6482,331,600.6482" style="stroke:#2C3E50;stroke-width:1.0;"/><line style="stroke:#2C3E50;stroke-width:1.0;" x1="331" x2="331" y1="409.4852" y2="429.4852"/><polygon fill="#2C3E50" points="327,419.4852,331,429.4852,335,419.4852,331,423.4852" style="stroke:#2C3E50;stroke-width:1.0;"/><line style="stroke:#2C3E50;stroke-width:1.0;" x1="331" x2="331" y1="748.8273" y2="776.1553"/><polygon fill="#2C3E50" points="327,766.1553,331,776.1553,335,766.1553,331,770.1553" style="stroke:#2C3E50;stroke-width:1.0;"/><line style="stroke:#2C3E50;stroke-width:1.0;" x1="331" x2="331" y1="686.9923" y2="712.4832"/><polygon fill="#2C3E50" points="327,702.4832,331,712.4832,335,702.4832,331,706.4832" style="stroke:#2C3E50;stroke-width:1.0;"/><line style="stroke:#2C3E50;stroke-width:1.0;" x1="391.5" x2="422" y1="674.9923" y2="674.9923"/><polygon fill="#2C3E50" points="418,746.1553,422,756.1553,426,746.1553,422,750.1553" style="stroke:#2C3E50;stroke-width:1.0;"/><line style="stroke:#2C3E50;stroke-width:1.0;" x1="422" x2="422" y1="674.9923" y2="820.1553"/><line style="stroke:#2C3E50;stroke-width:1.0;" x1="422" x2="331" y1="820.1553" y2="820.1553"/><line style="stroke:#2C3E50;stroke-width:1.0;" x1="331" x2="331" y1="820.1553" y2="840.1553"/><polygon fill="#2C3E50" points="327,830.1553,331,840.1553,335,830.1553,331,834.1553" style="stroke:#2C3E50;stroke-width:1.0;"/><line style="stroke:#2C3E50;stroke-width:1.0;" x1="331" x2="331" y1="642.9923" y2="662.9923"/><polygon fill="#2C3E50" points="327,652.9923,331,662.9923,335,652.9923,331,656.9923" style="stroke:#2C3E50;stroke-width:1.0;"/><line style="stroke:#2C3E50;stroke-width:1.0;" x1="331" x2="331" y1="982.3344" y2="1012.5065"/><polygon fill="#2C3E50" points="327,1002.5065,331,1012.5065,335,1002.5065,331,1006.5065" style="stroke:#2C3E50;stroke-width:1.0;"/><line style="stroke:#2C3E50;stroke-width:1.0;" x1="331" x2="331" y1="920.4994" y2="945.9903"/><polygon fill="#2C3E50" points="327,935.9903,331,945.9903,335,935.9903,331,939.9903" style="stroke:#2C3E50;stroke-width:1.0;"/><line style="stroke:#2C3E50;stroke-width:1.0;" x1="417.5" x2="638" y1="908.4994" y2="908.4994"/><polygon fill="#2C3E50" points="634,992.3344,638,1002.3344,642,992.3344,638,996.3344" style="stroke:#2C3E50;stroke-width:1.0;"/><line style="stroke:#2C3E50;stroke-width:1.0;" x1="638" x2="638" y1="908.4994" y2="1076.5065"/><polygon fill="#2C3E50" points="634,1066.5065,638,1076.5065,642,1066.5065,638,1070.5065" style="stroke:#2C3E50;stroke-width:1.0;"/><line style="stroke:#2C3E50;stroke-width:1.0;" x1="331" x2="331" y1="876.4994" y2="896.4994"/><polygon fill="#2C3E50" points="327,886.4994,331,896.4994,335,886.4994,331,890.4994" style="stroke:#2C3E50;stroke-width:1.0;"/><line style="stroke:#2C3E50;stroke-width:1.0;" x1="250" x2="250" y1="1589.6035" y2="1609.6035"/><polygon fill="#2C3E50" points="246,1599.6035,250,1609.6035,254,1599.6035,250,1603.6035" style="stroke:#2C3E50;stroke-width:1.0;"/><line style="stroke:#2C3E50;stroke-width:1.0;" x1="435" x2="435" y1="1589.6035" y2="1609.6035"/><polygon fill="#2C3E50" points="431,1599.6035,435,1609.6035,439,1599.6035,435,1603.6035" style="stroke:#2C3E50;stroke-width:1.0;"/><line style="stroke:#2C3E50;stroke-width:1.0;" x1="250" x2="250" y1="1645.9476" y2="1665.9476"/><polygon fill="#2C3E50" points="246,1655.9476,250,1665.9476,254,1655.9476,250,1659.9476" style="stroke:#2C3E50;stroke-width:1.0;"/><line style="stroke:#2C3E50;stroke-width:1.0;" x1="435" x2="435" y1="1645.9476" y2="1665.9476"/><polygon fill="#2C3E50" points="431,1655.9476,435,1665.9476,439,1655.9476,435,1659.9476" style="stroke:#2C3E50;stroke-width:1.0;"/><line style="stroke:#2C3E50;stroke-width:1.0;" x1="638" x2="638" y1="1112.8506" y2="1132.8506"/><polygon fill="#2C3E50" points="634,1122.8506,638,1132.8506,642,1122.8506,638,1126.8506" style="stroke:#2C3E50;stroke-width:1.0;"/><line style="stroke:#2C3E50;stroke-width:1.0;" x1="638" x2="638" y1="1169.1947" y2="1189.1947"/><polygon fill="#2C3E50" points="634,1179.1947,638,1189.1947,642,1179.1947,638,1183.1947" style="stroke:#2C3E50;stroke-width:1.0;"/><line style="stroke:#2C3E50;stroke-width:1.0;" x1="638" x2="638" y1="1225.5388" y2="1245.5388"/><polygon fill="#2C3E50" points="634,1235.5388,638,1245.5388,642,1235.5388,638,1239.5388" style="stroke:#2C3E50;stroke-width:1.0;"/><line style="stroke:#2C3E50;stroke-width:1.0;" x1="638" x2="638" y1="1281.883" y2="1301.883"/><polygon fill="#2C3E50" points="634,1291.883,638,1301.883,642,1291.883,638,1295.883" style="stroke:#2C3E50;stroke-width:1.0;"/><line style="stroke:#2C3E50;stroke-width:1.0;" x1="638" x2="638" y1="1338.2271" y2="1358.2271"/><polygon fill="#2C3E50" points="634,1348.2271,638,1358.2271,642,1348.2271,638,1352.2271" style="stroke:#2C3E50;stroke-width:1.0;"/><line style="stroke:#2C3E50;stroke-width:1.0;" x1="638" x2="638" y1="1394.5712" y2="1414.5712"/><polygon fill="#2C3E50" points="634,1404.5712,638,1414.5712,642,1404.5712,638,1408.5712" style="stroke:#2C3E50;stroke-width:1.0;"/><line style="stroke:#2C3E50;stroke-width:1.0;" x1="638" x2="638" y1="1450.9153" y2="1470.9153"/><polygon fill="#2C3E50" points="634,1460.9153,638,1470.9153,642,1460.9153,638,1464.9153" style="stroke:#2C3E50;stroke-width:1.0;"/><line style="stroke:#2C3E50;stroke-width:1.0;" x1="638" x2="638" y1="1507.2594" y2="1527.2594"/><polygon fill="#2C3E50" points="634,1517.2594,638,1527.2594,642,1517.2594,638,1521.2594" style="stroke:#2C3E50;stroke-width:1.0;"/><line style="stroke:#2C3E50;stroke-width:1.0;" x1="79.5" x2="79.5" y1="119.6339" y2="124.6339"/><line style="stroke:#2C3E50;stroke-width:1.0;" x1="79.5" x2="331" y1="124.6339" y2="124.6339"/><line style="stroke:#2C3E50;stroke-width:1.0;" x1="331" x2="331" y1="124.6339" y2="139.6339"/><polygon fill="#2C3E50" points="327,129.6339,331,139.6339,335,129.6339,331,133.6339" style="stroke:#2C3E50;stroke-width:1.0;"/><line style="stroke:#2C3E50;stroke-width:1.0;" x1="638" x2="638" y1="1563.6035" y2="1568.6035"/><line style="stroke:#2C3E50;stroke-width:1.0;" x1="638" x2="331" y1="1568.6035" y2="1568.6035"/><line style="stroke:#2C3E50;stroke-width:1.0;" x1="331" x2="331" y1="1568.6035" y2="1583.6035"/><polygon fill="#2C3E50" points="327,1573.6035,331,1583.6035,335,1573.6035,331,1577.6035" style="stroke:#2C3E50;stroke-width:1.0;"/><line style="stroke:#2C3E50;stroke-width:1.0;" x1="331" x2="331" y1="1671.9476" y2="1676.9476"/><line style="stroke:#2C3E50;stroke-width:1.0;" x1="331" x2="79.5" y1="1676.9476" y2="1676.9476"/><line style="stroke:#2C3E50;stroke-width:1.0;" x1="79.5" x2="79.5" y1="1676.9476" y2="1691.9476"/><polygon fill="#2C3E50" points="75.5,1681.9476,79.5,1691.9476,83.5,1681.9476,79.5,1685.9476" style="stroke:#2C3E50;stroke-width:1.0;"/><text fill="#000000" font-family="sans-serif" font-size="18" lengthAdjust="spacing" textLength="59" x="49" y="33.0158">Cliente</text><text fill="#000000" font-family="sans-serif" font-size="18" lengthAdjust="spacing" textLength="68" x="296" y="33.0158">Sistema</text><text fill="#000000" font-family="sans-serif" font-size="18" lengthAdjust="spacing" textLength="122" x="576" y="33.0158">Base de Datos</text><!--SRC=[ZLFRRjD047ttLupAI_o0bBG5H2A1KYSMaMWfITHNDAmdOHHx9-nkWYZXO_Y0Fl41IEJ763kNrarHwpUVEJDdzynPFsCxHuS5e0cyvF0TVaIWtncQsTJ9mcQ9vEBWMLfzcvguZDmMFqvE-Y-Q5TvrJhuTmgdOS845mL7NCUP7Ut34rmIju-g_nrY8pGvbJzENwQiQvN_gsmiSZkYb_RHVvpmmusSKhPASoGPQHJwW2r4xPOivNwE3EMMSIKSv8_Q12bn5xIkjPLeBCYCB6O4dp-lVjXFn11f__umhVBd-fJHv6qFueh-D2uchixI7EjBnb1qW9Ey7pvijQBmRZo_XjDcAEnN71vb7b7k2ncXz4qTaCvv4gaoE9snKEq7dECX8bMKll0N12YpHh6yU43yN7vpsa-xCxNMRZ-WcOlqYLszAXfbzqj0iCD_9ZaeC_49FLjduLDNNZwYUvV9rGTfcS8v6BS-Ka4iOaLkoeVZsshjondukbZ_d16-W-RZrhUPJ3xCwGuLqrpqCuZK40wktBKFWq7eqPXC0XJsvqgZBRN1kaO76vm7KJfs2fMyrGhUokChWNS-XqIFZg52-n3Kzz38aGm4FDShQ1krhmEkrH3AUoYvOHjFqSTYfDZvXLzox83II3-VdWt5SUn0JSREDl_s2Wvfh9ModRNfGNnCCowwI2ZX5jfk6AwnCl9TczHogeNTUPli2bpJ5_UPEEb6vgdy0]--></g></svg>