<?xml version="1.0" encoding="us-ascii" standalone="no"?><svg xmlns="http://www.w3.org/2000/svg" xmlns:xlink="http://www.w3.org/1999/xlink" contentStyleType="text/css" height="1256px" preserveAspectRatio="none" style="width:1346px;height:1256px;background:#FFFFFF;" version="1.1" viewBox="0 0 1346 1256" width="1346px" zoomAndPan="magnify"><defs/><g><rect fill="#F0F0F0" height="377.7662" style="stroke:#000000;stroke-width:1.0;" width="10" x="305.5" y="117.7739"/><rect fill="#F0F0F0" height="719.8082" style="stroke:#000000;stroke-width:1.0;" width="10" x="305.5" y="519.2461"/><rect fill="#F0F0F0" height="164.5301" style="stroke:#000000;stroke-width:1.0;" width="10" x="542.5" y="149.4799"/><rect fill="#F0F0F0" height="158.5301" style="stroke:#000000;stroke-width:1.0;" width="10" x="542.5" y="550.9521"/><rect fill="#F0F0F0" height="354.0602" style="stroke:#000000;stroke-width:1.0;" width="10" x="542.5" y="885.9942"/><rect fill="#F0F0F0" height="101.118" style="stroke:#000000;stroke-width:1.0;" width="10" x="719.5" y="181.186"/><rect fill="#F0F0F0" height="242.9421" style="stroke:#000000;stroke-width:1.0;" width="10" x="719.5" y="917.7002"/><rect fill="#F0F0F0" height="95.118" style="stroke:#000000;stroke-width:1.0;" width="10" x="895.5" y="582.6582"/><rect fill="none" height="51.412" style="stroke:#000000;stroke-width:1.5;" width="364.5" x="10" y="437.1281"/><rect fill="none" height="475.8661" style="stroke:#000000;stroke-width:1.5;" width="1122.5" x="10" y="756.1882"/><rect fill="none" height="114.8241" style="stroke:#000000;stroke-width:1.5;" width="471.5" x="655.5" y="932.7002"/><line style="stroke:#000000;stroke-width:0.5;stroke-dasharray:5.0,5.0;" x1="44" x2="44" y1="84.0679" y2="1249.0544"/><line style="stroke:#000000;stroke-width:0.5;stroke-dasharray:5.0,5.0;" x1="310.5" x2="310.5" y1="84.0679" y2="1249.0544"/><line style="stroke:#000000;stroke-width:0.5;stroke-dasharray:5.0,5.0;" x1="547" x2="547" y1="84.0679" y2="1249.0544"/><line style="stroke:#000000;stroke-width:0.5;stroke-dasharray:5.0,5.0;" x1="724.5" x2="724.5" y1="84.0679" y2="1249.0544"/><line style="stroke:#000000;stroke-width:0.5;stroke-dasharray:5.0,5.0;" x1="900.5" x2="900.5" y1="84.0679" y2="1249.0544"/><line style="stroke:#000000;stroke-width:0.5;stroke-dasharray:5.0,5.0;" x1="1075" x2="1075" y1="84.0679" y2="1249.0544"/><text fill="#000000" font-family="sans-serif" font-size="14" lengthAdjust="spacing" textLength="43" x="20" y="79.9659">Cajero</text><ellipse cx="44.5" cy="13.5" fill="#E2E2F0" rx="8" ry="8" style="stroke:#000000;stroke-width:0.5;"/><path d="M44.5,21.5 L44.5,48.5 M31.5,29.5 L57.5,29.5 M44.5,48.5 L31.5,63.5 M44.5,48.5 L57.5,63.5 " fill="none" style="stroke:#000000;stroke-width:0.5;"/><rect fill="#FFFFFF" height="33.0679" rx="2.5" ry="2.5" style="stroke:#000000;stroke-width:0.5;" width="108" x="256.5" y="50"/><text fill="#000000" font-family="sans-serif" font-size="14" lengthAdjust="spacing" textLength="94" x="263.5" y="71.9659">Frontend Caja</text><rect fill="#FFFFFF" height="33.0679" rx="2.5" ry="2.5" style="stroke:#000000;stroke-width:0.5;" width="97" x="499" y="50"/><text fill="#000000" font-family="sans-serif" font-size="14" lengthAdjust="spacing" textLength="83" x="506" y="71.9659">API Gateway</text><rect fill="#FFFFFF" height="33.0679" rx="2.5" ry="2.5" style="stroke:#000000;stroke-width:0.5;" width="118" x="665.5" y="50"/><text fill="#000000" font-family="sans-serif" font-size="14" lengthAdjust="spacing" textLength="104" x="672.5" y="71.9659">CashCutService</text><rect fill="#FFFFFF" height="33.0679" rx="2.5" ry="2.5" style="stroke:#000000;stroke-width:0.5;" width="126" x="837.5" y="50"/><text fill="#000000" font-family="sans-serif" font-size="14" lengthAdjust="spacing" textLength="112" x="844.5" y="71.9659">InventoryService</text><text fill="#000000" font-family="sans-serif" font-size="14" lengthAdjust="spacing" textLength="77" x="1034" y="79.9659">PostgreSQL</text><path d="M1057.5,29 C1057.5,19 1075.5,19 1075.5,19 C1075.5,19 1093.5,19 1093.5,29 L1093.5,55 C1093.5,65 1075.5,65 1075.5,65 C1075.5,65 1057.5,65 1057.5,55 L1057.5,29 " fill="#E2E2F0" style="stroke:#181818;stroke-width:1.5;"/><path d="M1057.5,29 C1057.5,39 1075.5,39 1075.5,39 C1075.5,39 1093.5,39 1093.5,29 " fill="none" style="stroke:#181818;stroke-width:1.5;"/><rect fill="#F0F0F0" height="377.7662" style="stroke:#000000;stroke-width:1.0;" width="10" x="305.5" y="117.7739"/><rect fill="#F0F0F0" height="719.8082" style="stroke:#000000;stroke-width:1.0;" width="10" x="305.5" y="519.2461"/><rect fill="#F0F0F0" height="164.5301" style="stroke:#000000;stroke-width:1.0;" width="10" x="542.5" y="149.4799"/><rect fill="#F0F0F0" height="158.5301" style="stroke:#000000;stroke-width:1.0;" width="10" x="542.5" y="550.9521"/><rect fill="#F0F0F0" height="354.0602" style="stroke:#000000;stroke-width:1.0;" width="10" x="542.5" y="885.9942"/><rect fill="#F0F0F0" height="101.118" style="stroke:#000000;stroke-width:1.0;" width="10" x="719.5" y="181.186"/><rect fill="#F0F0F0" height="242.9421" style="stroke:#000000;stroke-width:1.0;" width="10" x="719.5" y="917.7002"/><rect fill="#F0F0F0" height="95.118" style="stroke:#000000;stroke-width:1.0;" width="10" x="895.5" y="582.6582"/><polygon fill="#000000" points="293.5,113.7739,303.5,117.7739,293.5,121.7739" style="stroke:#000000;stroke-width:1.0;"/><line style="stroke:#000000;stroke-width:1.0;" x1="44.5" x2="299.5" y1="117.7739" y2="117.7739"/><text fill="#000000" font-family="sans-serif" font-size="13" font-weight="bold" lengthAdjust="spacing" textLength="22" x="51.5" y="111.9649">[01]</text><text fill="#000000" font-family="sans-serif" font-size="13" lengthAdjust="spacing" textLength="114" x="77.5" y="111.9649">Inicia corte (CAJ-22)</text><polygon fill="#000000" points="530.5,145.4799,540.5,149.4799,530.5,153.4799" style="stroke:#000000;stroke-width:1.0;"/><line style="stroke:#000000;stroke-width:1.0;" x1="315.5" x2="536.5" y1="149.4799" y2="149.4799"/><text fill="#000000" font-family="sans-serif" font-size="13" font-weight="bold" lengthAdjust="spacing" textLength="22" x="322.5" y="143.6709">[02]</text><text fill="#000000" font-family="sans-serif" font-size="13" lengthAdjust="spacing" textLength="162" x="348.5" y="143.6709">GET /api/cashcut/summary</text><polygon fill="#000000" points="707.5,177.186,717.5,181.186,707.5,185.186" style="stroke:#000000;stroke-width:1.0;"/><line style="stroke:#000000;stroke-width:1.0;" x1="552.5" x2="713.5" y1="181.186" y2="181.186"/><text fill="#000000" font-family="sans-serif" font-size="13" font-weight="bold" lengthAdjust="spacing" textLength="22" x="559.5" y="175.377">[03]</text><text fill="#000000" font-family="sans-serif" font-size="13" lengthAdjust="spacing" textLength="122" x="585.5" y="175.377">getShiftSummary(...)</text><polygon fill="#000000" points="1063.5,211.892,1073.5,215.892,1063.5,219.892" style="stroke:#000000;stroke-width:1.0;"/><line style="stroke:#000000;stroke-width:1.0;" x1="729.5" x2="1069.5" y1="215.892" y2="215.892"/><text fill="#000000" font-family="sans-serif" font-size="13" font-weight="bold" lengthAdjust="spacing" textLength="22" x="736.5" y="210.083">[04]</text><text fill="#000000" font-family="sans-serif" font-size="13" lengthAdjust="spacing" textLength="265" x="762.5" y="210.083">SELECT SUM(total) GROUP BY metodo_pago</text><path d="M1080,194.186 L1080,221.186 L1339,221.186 L1339,204.186 L1329,194.186 L1080,194.186 " fill="#FEFFDD" style="stroke:#181818;stroke-width:0.5;"/><path d="M1329,194.186 L1329,204.186 L1339,204.186 L1329,194.186 " fill="#FEFFDD" style="stroke:#181818;stroke-width:0.5;"/><text fill="#000000" font-family="sans-serif" font-size="13" lengthAdjust="spacing" textLength="238" x="1086" y="213.083">F&#243;rmula RN-CAJ-015: Montos esperados</text><line style="stroke:#000000;stroke-width:1.0;" x1="730.5" x2="740.5" y1="250.598" y2="246.598"/><line style="stroke:#000000;stroke-width:1.0;" x1="730.5" x2="740.5" y1="250.598" y2="254.598"/><line style="stroke:#000000;stroke-width:1.0;stroke-dasharray:2.0,2.0;" x1="729.5" x2="1074.5" y1="250.598" y2="250.598"/><text fill="#000000" font-family="sans-serif" font-size="13" font-weight="bold" lengthAdjust="spacing" textLength="22" x="746.5" y="244.789">[05]</text><text fill="#000000" font-family="sans-serif" font-size="13" lengthAdjust="spacing" textLength="66" x="772.5" y="244.789">Resultados</text><line style="stroke:#000000;stroke-width:1.0;" x1="553.5" x2="563.5" y1="282.304" y2="278.304"/><line style="stroke:#000000;stroke-width:1.0;" x1="553.5" x2="563.5" y1="282.304" y2="286.304"/><line style="stroke:#000000;stroke-width:1.0;stroke-dasharray:2.0,2.0;" x1="552.5" x2="723.5" y1="282.304" y2="282.304"/><text fill="#000000" font-family="sans-serif" font-size="13" font-weight="bold" lengthAdjust="spacing" textLength="22" x="569.5" y="276.495">[06]</text><text fill="#000000" font-family="sans-serif" font-size="13" lengthAdjust="spacing" textLength="103" x="595.5" y="276.495">{resumen_turno}</text><line style="stroke:#000000;stroke-width:1.0;" x1="316.5" x2="326.5" y1="314.01" y2="310.01"/><line style="stroke:#000000;stroke-width:1.0;" x1="316.5" x2="326.5" y1="314.01" y2="318.01"/><line style="stroke:#000000;stroke-width:1.0;stroke-dasharray:2.0,2.0;" x1="315.5" x2="546.5" y1="314.01" y2="314.01"/><text fill="#000000" font-family="sans-serif" font-size="13" font-weight="bold" lengthAdjust="spacing" textLength="22" x="332.5" y="308.201">[07]</text><text fill="#000000" font-family="sans-serif" font-size="13" lengthAdjust="spacing" textLength="91" x="358.5" y="308.201">Datos resumen</text><line style="stroke:#000000;stroke-width:1.0;" x1="45.5" x2="55.5" y1="345.716" y2="341.716"/><line style="stroke:#000000;stroke-width:1.0;" x1="45.5" x2="55.5" y1="345.716" y2="349.716"/><line style="stroke:#000000;stroke-width:1.0;stroke-dasharray:2.0,2.0;" x1="44.5" x2="304.5" y1="345.716" y2="345.716"/><text fill="#000000" font-family="sans-serif" font-size="13" font-weight="bold" lengthAdjust="spacing" textLength="22" x="61.5" y="339.907">[08]</text><text fill="#000000" font-family="sans-serif" font-size="13" lengthAdjust="spacing" textLength="165" x="87.5" y="339.907">Muestra montos esperados</text><polygon fill="#000000" points="293.5,373.4221,303.5,377.4221,293.5,381.4221" style="stroke:#000000;stroke-width:1.0;"/><line style="stroke:#000000;stroke-width:1.0;" x1="44.5" x2="299.5" y1="377.4221" y2="377.4221"/><text fill="#000000" font-family="sans-serif" font-size="13" font-weight="bold" lengthAdjust="spacing" textLength="22" x="51.5" y="371.6131">[09]</text><text fill="#000000" font-family="sans-serif" font-size="13" lengthAdjust="spacing" textLength="135" x="77.5" y="371.6131">Ingresa conteos f&#237;sicos</text><line style="stroke:#000000;stroke-width:1.0;" x1="315.5" x2="357.5" y1="409.1281" y2="409.1281"/><line style="stroke:#000000;stroke-width:1.0;" x1="357.5" x2="357.5" y1="409.1281" y2="422.1281"/><line style="stroke:#000000;stroke-width:1.0;" x1="316.5" x2="357.5" y1="422.1281" y2="422.1281"/><polygon fill="#000000" points="326.5,418.1281,316.5,422.1281,326.5,426.1281" style="stroke:#000000;stroke-width:1.0;"/><text fill="#000000" font-family="sans-serif" font-size="13" font-weight="bold" lengthAdjust="spacing" textLength="22" x="322.5" y="403.3191">[10]</text><text fill="#000000" font-family="sans-serif" font-size="13" lengthAdjust="spacing" textLength="187" x="348.5" y="403.3191">Calcula diferencias (RN-CAJ-016)</text><path d="M10,437.1281 L73,437.1281 L73,446.8341 L63,456.8341 L10,456.8341 L10,437.1281 " fill="#EEEEEE" style="stroke:#000000;stroke-width:1.5;"/><rect fill="none" height="51.412" style="stroke:#000000;stroke-width:1.5;" width="364.5" x="10" y="437.1281"/><text fill="#000000" font-family="sans-serif" font-size="13" font-weight="bold" lengthAdjust="spacing" textLength="18" x="25" y="452.0251">alt</text><text fill="#000000" font-family="sans-serif" font-size="11" font-weight="bold" lengthAdjust="spacing" textLength="111" x="88" y="450.887">[Existen diferencias]</text><polygon fill="#000000" points="293.5,476.5401,303.5,480.5401,293.5,484.5401" style="stroke:#000000;stroke-width:1.0;"/><line style="stroke:#000000;stroke-width:1.0;" x1="44.5" x2="299.5" y1="480.5401" y2="480.5401"/><text fill="#000000" font-family="sans-serif" font-size="13" font-weight="bold" lengthAdjust="spacing" textLength="22" x="51.5" y="474.7311">[11]</text><text fill="#000000" font-family="sans-serif" font-size="13" lengthAdjust="spacing" textLength="163" x="77.5" y="474.7311">Ingresa ajustes explicativos</text><polygon fill="#000000" points="293.5,515.2461,303.5,519.2461,293.5,523.2461" style="stroke:#000000;stroke-width:1.0;"/><line style="stroke:#000000;stroke-width:1.0;" x1="44.5" x2="299.5" y1="519.2461" y2="519.2461"/><text fill="#000000" font-family="sans-serif" font-size="13" font-weight="bold" lengthAdjust="spacing" textLength="22" x="51.5" y="513.4371">[12]</text><text fill="#000000" font-family="sans-serif" font-size="13" lengthAdjust="spacing" textLength="182" x="77.5" y="513.4371">Solicita lista inventario (CAJ-23)</text><polygon fill="#000000" points="530.5,546.9521,540.5,550.9521,530.5,554.9521" style="stroke:#000000;stroke-width:1.0;"/><line style="stroke:#000000;stroke-width:1.0;" x1="315.5" x2="536.5" y1="550.9521" y2="550.9521"/><text fill="#000000" font-family="sans-serif" font-size="13" font-weight="bold" lengthAdjust="spacing" textLength="22" x="322.5" y="545.1431">[13]</text><text fill="#000000" font-family="sans-serif" font-size="13" lengthAdjust="spacing" textLength="157" x="348.5" y="545.1431">GET /api/inventory/cut-list</text><polygon fill="#000000" points="883.5,578.6582,893.5,582.6582,883.5,586.6582" style="stroke:#000000;stroke-width:1.0;"/><line style="stroke:#000000;stroke-width:1.0;" x1="552.5" x2="889.5" y1="582.6582" y2="582.6582"/><text fill="#000000" font-family="sans-serif" font-size="13" font-weight="bold" lengthAdjust="spacing" textLength="22" x="559.5" y="576.8492">[14]</text><text fill="#000000" font-family="sans-serif" font-size="13" lengthAdjust="spacing" textLength="138" x="585.5" y="576.8492">getInventoryCutList(...)</text><polygon fill="#000000" points="1063.5,610.3642,1073.5,614.3642,1063.5,618.3642" style="stroke:#000000;stroke-width:1.0;"/><line style="stroke:#000000;stroke-width:1.0;" x1="905.5" x2="1069.5" y1="614.3642" y2="614.3642"/><text fill="#000000" font-family="sans-serif" font-size="13" font-weight="bold" lengthAdjust="spacing" textLength="22" x="912.5" y="608.5552">[15]</text><text fill="#000000" font-family="sans-serif" font-size="13" lengthAdjust="spacing" textLength="120" x="938.5" y="608.5552">SELECT stock_actual</text><line style="stroke:#000000;stroke-width:1.0;" x1="906.5" x2="916.5" y1="646.0702" y2="642.0702"/><line style="stroke:#000000;stroke-width:1.0;" x1="906.5" x2="916.5" y1="646.0702" y2="650.0702"/><line style="stroke:#000000;stroke-width:1.0;stroke-dasharray:2.0,2.0;" x1="905.5" x2="1074.5" y1="646.0702" y2="646.0702"/><text fill="#000000" font-family="sans-serif" font-size="13" font-weight="bold" lengthAdjust="spacing" textLength="22" x="922.5" y="640.2612">[16]</text><text fill="#000000" font-family="sans-serif" font-size="13" lengthAdjust="spacing" textLength="62" x="948.5" y="640.2612">Inventario</text><line style="stroke:#000000;stroke-width:1.0;" x1="553.5" x2="563.5" y1="677.7762" y2="673.7762"/><line style="stroke:#000000;stroke-width:1.0;" x1="553.5" x2="563.5" y1="677.7762" y2="681.7762"/><line style="stroke:#000000;stroke-width:1.0;stroke-dasharray:2.0,2.0;" x1="552.5" x2="899.5" y1="677.7762" y2="677.7762"/><text fill="#000000" font-family="sans-serif" font-size="13" font-weight="bold" lengthAdjust="spacing" textLength="22" x="569.5" y="671.9672">[17]</text><text fill="#000000" font-family="sans-serif" font-size="13" lengthAdjust="spacing" textLength="82" x="595.5" y="671.9672">Lista insumos</text><line style="stroke:#000000;stroke-width:1.0;" x1="316.5" x2="326.5" y1="709.4822" y2="705.4822"/><line style="stroke:#000000;stroke-width:1.0;" x1="316.5" x2="326.5" y1="709.4822" y2="713.4822"/><line style="stroke:#000000;stroke-width:1.0;stroke-dasharray:2.0,2.0;" x1="315.5" x2="546.5" y1="709.4822" y2="709.4822"/><text fill="#000000" font-family="sans-serif" font-size="13" font-weight="bold" lengthAdjust="spacing" textLength="22" x="332.5" y="703.6732">[18]</text><text fill="#000000" font-family="sans-serif" font-size="13" lengthAdjust="spacing" textLength="100" x="358.5" y="703.6732">Lista de insumos</text><polygon fill="#000000" points="293.5,737.1882,303.5,741.1882,293.5,745.1882" style="stroke:#000000;stroke-width:1.0;"/><line style="stroke:#000000;stroke-width:1.0;" x1="44.5" x2="299.5" y1="741.1882" y2="741.1882"/><text fill="#000000" font-family="sans-serif" font-size="13" font-weight="bold" lengthAdjust="spacing" textLength="22" x="51.5" y="735.3792">[19]</text><text fill="#000000" font-family="sans-serif" font-size="13" lengthAdjust="spacing" textLength="113" x="77.5" y="735.3792">Ingresa stock f&#237;sico</text><path d="M10,756.1882 L73,756.1882 L73,765.8943 L63,775.8943 L10,775.8943 L10,756.1882 " fill="#EEEEEE" style="stroke:#000000;stroke-width:1.5;"/><rect fill="none" height="475.8661" style="stroke:#000000;stroke-width:1.5;" width="1122.5" x="10" y="756.1882"/><text fill="#000000" font-family="sans-serif" font-size="13" font-weight="bold" lengthAdjust="spacing" textLength="18" x="25" y="771.0853">alt</text><text fill="#000000" font-family="sans-serif" font-size="11" font-weight="bold" lengthAdjust="spacing" textLength="152" x="88" y="769.9472">[Diferencias no justificadas]</text><path d="M160,780.8943 L160,807.8943 L461,807.8943 L461,790.8943 L451,780.8943 L160,780.8943 " fill="#FEFFDD" style="stroke:#181818;stroke-width:0.5;"/><path d="M451,780.8943 L451,790.8943 L461,790.8943 L451,780.8943 " fill="#FEFFDD" style="stroke:#181818;stroke-width:0.5;"/><text fill="#000000" font-family="sans-serif" font-size="13" lengthAdjust="spacing" textLength="280" x="166" y="799.7913">Bot&#243;n confirmaci&#243;n deshabilitado (RN-CAJ-017)</text><line style="stroke:#000000;stroke-width:1.0;stroke-dasharray:2.0,2.0;" x1="10" x2="1132.5" y1="814.6003" y2="814.6003"/><text fill="#000000" font-family="sans-serif" font-size="11" font-weight="bold" lengthAdjust="spacing" textLength="135" x="15" y="826.3592">[Diferencias justificadas]</text><polygon fill="#000000" points="293.5,850.2882,303.5,854.2882,293.5,858.2882" style="stroke:#000000;stroke-width:1.0;"/><line style="stroke:#000000;stroke-width:1.0;" x1="44.5" x2="299.5" y1="854.2882" y2="854.2882"/><text fill="#000000" font-family="sans-serif" font-size="13" font-weight="bold" lengthAdjust="spacing" textLength="22" x="51.5" y="848.4792">[20]</text><text fill="#000000" font-family="sans-serif" font-size="13" lengthAdjust="spacing" textLength="211" x="77.5" y="848.4792">Confirma cierre definitivo (CAJ-24-B)</text><polygon fill="#000000" points="530.5,881.9942,540.5,885.9942,530.5,889.9942" style="stroke:#000000;stroke-width:1.0;"/><line style="stroke:#000000;stroke-width:1.0;" x1="315.5" x2="536.5" y1="885.9942" y2="885.9942"/><text fill="#000000" font-family="sans-serif" font-size="13" font-weight="bold" lengthAdjust="spacing" textLength="22" x="322.5" y="880.1852">[21]</text><text fill="#000000" font-family="sans-serif" font-size="13" lengthAdjust="spacing" textLength="144" x="348.5" y="880.1852">POST /api/cashcut/close</text><polygon fill="#000000" points="707.5,913.7002,717.5,917.7002,707.5,921.7002" style="stroke:#000000;stroke-width:1.0;"/><line style="stroke:#000000;stroke-width:1.0;" x1="552.5" x2="713.5" y1="917.7002" y2="917.7002"/><text fill="#000000" font-family="sans-serif" font-size="13" font-weight="bold" lengthAdjust="spacing" textLength="22" x="559.5" y="911.8912">[22]</text><text fill="#000000" font-family="sans-serif" font-size="13" lengthAdjust="spacing" textLength="75" x="585.5" y="911.8912">closeTurn(...)</text><path d="M655.5,932.7002 L841.5,932.7002 L841.5,942.4062 L831.5,952.4062 L655.5,952.4062 L655.5,932.7002 " fill="#EEEEEE" style="stroke:#000000;stroke-width:1.5;"/><rect fill="none" height="114.8241" style="stroke:#000000;stroke-width:1.5;" width="471.5" x="655.5" y="932.7002"/><text fill="#000000" font-family="sans-serif" font-size="13" font-weight="bold" lengthAdjust="spacing" textLength="138" x="670.5" y="947.5972">Transacci&#243;n At&#243;mica</text><text fill="#000000" font-family="sans-serif" font-size="11" font-weight="bold" lengthAdjust="spacing" textLength="69" x="856.5" y="946.4591">[RN-CAJ-018]</text><polygon fill="#000000" points="1063.5,972.1123,1073.5,976.1123,1063.5,980.1123" style="stroke:#000000;stroke-width:1.0;"/><line style="stroke:#000000;stroke-width:1.0;" x1="729.5" x2="1069.5" y1="976.1123" y2="976.1123"/><text fill="#000000" font-family="sans-serif" font-size="13" font-weight="bold" lengthAdjust="spacing" textLength="22" x="736.5" y="970.3032">[23]</text><text fill="#000000" font-family="sans-serif" font-size="13" lengthAdjust="spacing" textLength="120" x="762.5" y="970.3032">INSERT CorteDeCaja</text><polygon fill="#000000" points="1063.5,1003.8183,1073.5,1007.8183,1063.5,1011.8183" style="stroke:#000000;stroke-width:1.0;"/><line style="stroke:#000000;stroke-width:1.0;" x1="729.5" x2="1069.5" y1="1007.8183" y2="1007.8183"/><text fill="#000000" font-family="sans-serif" font-size="13" font-weight="bold" lengthAdjust="spacing" textLength="22" x="736.5" y="1002.0093">[24]</text><text fill="#000000" font-family="sans-serif" font-size="13" lengthAdjust="spacing" textLength="221" x="762.5" y="1002.0093">UPDATE Turno SET estado=CERRADO</text><polygon fill="#000000" points="1063.5,1035.5243,1073.5,1039.5243,1063.5,1043.5243" style="stroke:#000000;stroke-width:1.0;"/><line style="stroke:#000000;stroke-width:1.0;" x1="729.5" x2="1069.5" y1="1039.5243" y2="1039.5243"/><text fill="#000000" font-family="sans-serif" font-size="13" font-weight="bold" lengthAdjust="spacing" textLength="22" x="736.5" y="1033.7153">[25]</text><text fill="#000000" font-family="sans-serif" font-size="13" lengthAdjust="spacing" textLength="191" x="762.5" y="1033.7153">INSERT HistorialDeMovimientos</text><path d="M676,1059.5243 L676,1086.5243 L1122,1086.5243 L1122,1069.5243 L1112,1059.5243 L676,1059.5243 " fill="#FEFFDD" style="stroke:#181818;stroke-width:0.5;"/><path d="M1112,1059.5243 L1112,1069.5243 L1122,1069.5243 L1112,1059.5243 " fill="#FEFFDD" style="stroke:#181818;stroke-width:0.5;"/><text fill="#000000" font-family="sans-serif" font-size="13" lengthAdjust="spacing" textLength="143" x="823.25" y="1078.4213">COMMIT TRANSACTION</text><line style="stroke:#000000;stroke-width:1.0;" x1="729.5" x2="771.5" y1="1115.9363" y2="1115.9363"/><line style="stroke:#000000;stroke-width:1.0;" x1="771.5" x2="771.5" y1="1115.9363" y2="1128.9363"/><line style="stroke:#000000;stroke-width:1.0;" x1="730.5" x2="771.5" y1="1128.9363" y2="1128.9363"/><polygon fill="#000000" points="740.5,1124.9363,730.5,1128.9363,740.5,1132.9363" style="stroke:#000000;stroke-width:1.0;"/><text fill="#000000" font-family="sans-serif" font-size="13" font-weight="bold" lengthAdjust="spacing" textLength="22" x="736.5" y="1110.1273">[26]</text><text fill="#000000" font-family="sans-serif" font-size="13" lengthAdjust="spacing" textLength="126" x="762.5" y="1110.1273">Invalida token sesi&#243;n</text><line style="stroke:#000000;stroke-width:1.0;" x1="553.5" x2="563.5" y1="1160.6423" y2="1156.6423"/><line style="stroke:#000000;stroke-width:1.0;" x1="553.5" x2="563.5" y1="1160.6423" y2="1164.6423"/><line style="stroke:#000000;stroke-width:1.0;stroke-dasharray:2.0,2.0;" x1="552.5" x2="723.5" y1="1160.6423" y2="1160.6423"/><text fill="#000000" font-family="sans-serif" font-size="13" font-weight="bold" lengthAdjust="spacing" textLength="22" x="569.5" y="1154.8333">[27]</text><text fill="#000000" font-family="sans-serif" font-size="13" lengthAdjust="spacing" textLength="18" x="595.5" y="1154.8333">OK</text><line style="stroke:#000000;stroke-width:1.0;" x1="316.5" x2="326.5" y1="1192.3484" y2="1188.3484"/><line style="stroke:#000000;stroke-width:1.0;" x1="316.5" x2="326.5" y1="1192.3484" y2="1196.3484"/><line style="stroke:#000000;stroke-width:1.0;stroke-dasharray:2.0,2.0;" x1="315.5" x2="541.5" y1="1192.3484" y2="1192.3484"/><text fill="#000000" font-family="sans-serif" font-size="13" font-weight="bold" lengthAdjust="spacing" textLength="22" x="332.5" y="1186.5393">[28]</text><text fill="#000000" font-family="sans-serif" font-size="13" lengthAdjust="spacing" textLength="42" x="358.5" y="1186.5393">200 OK</text><line style="stroke:#000000;stroke-width:1.0;" x1="45.5" x2="55.5" y1="1224.0544" y2="1220.0544"/><line style="stroke:#000000;stroke-width:1.0;" x1="45.5" x2="55.5" y1="1224.0544" y2="1228.0544"/><line style="stroke:#000000;stroke-width:1.0;stroke-dasharray:2.0,2.0;" x1="44.5" x2="304.5" y1="1224.0544" y2="1224.0544"/><text fill="#000000" font-family="sans-serif" font-size="13" font-weight="bold" lengthAdjust="spacing" textLength="22" x="61.5" y="1218.2454">[29]</text><text fill="#000000" font-family="sans-serif" font-size="13" lengthAdjust="spacing" textLength="96" x="87.5" y="1218.2454">Redirige a Login</text><!--SRC=[ZLRRRjj647tNLmoKXzX0PIlkNMWDI1IbC9KbLPHX544GZCcLl379LNUNZet03_sWFlaJ_6ET8IcIegKcr1EvPsvdpipgDNGw7N1KifBhL6CWdvyI20Munif8mLohbJ1I9HZ1aUixiujJRpuzPgEMkPN91ZN6yAK5zFZs8H9Wh9Q1JUCe_oR-JaKIY0B2JrzhzTbHaT8mY32uhGu2g_H0wL3eVSTpr5O6SeE9_JOGVLzhbIPX3howaLQKm8bSYObCn65N9QBXvzMeoxyIDrLs3-PN_krY3aOQgFl3oJws7bijJArAqlXQQ6Z_Tdt-ljlzq6wrNcUz6ugLJ6JPk1e3mcHzGkOLsWv-4bgr0Gqu_NUjJOM3zaWhWYSX40WpoCZTHVJd7epHYi_ua9sFhtRF7JGtJcfzeUza8F8eZh-ByP8xaL0k3tMKvxT2j7YDHa1xhenTQ-7_ESdEXeDjaVFdVyRUj0zlUh0GWKe26Sb2h2EP8BqBZLcrr-eUseSnRNXLSKiyGEUSQks1nnGY14fR0KTqq3axEyv0H9-yeygP4duVkMmplkh1s5t2AMxaQK351wazDMaSetxODIEc-7rynMR4IG_MmletScNz77vqSdBI2CNKyOSyIyTdq-6W1xuxSPqb-9SNHrPPZ8vXl9XTpc7m5yJ2gb1ztE1QPLO9IGwqND_O7eoUdtISHWYBQOTBwxxviGSNr79bG9WDqH8garaD1qJYUP7dGfWqikLPbGmZc80lcX2nI3xQL2VgCGE4uaKLN3gRCCz3vA25NTEWeAgaESka_uvoJGNj5OHuNyulMqaICjnBqZIXLy__6XaKuBnx37Cm2fYJaEPSquwI9BYZag2VZYlV65bmxwMX2QcZo_dT4ni_fORdJznl8XaWrLV4fo5hLaswuj4ZuJRLViOEUMPGImKFu922jO2-VNwAgQB3UgSziCVmaFPzHJbAYn1HZGYoiim7uVjl7WIvdV1J6eSEk_kVMV3oKIYt0gsF2Ldi6GSlrv7Nd0DZLN3xaM0fHZloPTSL0QNnLhUJeauIOT6MMZkybwBDyKJg0PEwRlU88KjpAyDTMGrhuaiKi6haYWGJrkILJRAweztFJWVASeS3lh5rNFRRtE0rzP-djQRYdtCYHKJBjHvgRvnQvaxX7O9SSM5snx2A2qdyq1aSbuQL4EOplx4IWqYPwjPjCjPOZ1buIRkaqi3UjLXIo0zVcnjOQamC1ZaTnO0Wl2-P-EL3QT3OgTxKTnTBAfas_r3m1NW8UJaVzfSkS8AA9BYaFSHy_-wuYqL_EFjAWBSa8gKbHaDneUvaB5dr5VlRnR3RSNBpNUQ4_dbTU4jOBlfJl-yilTdq9HD5p8nAKZz6CaImwfRMbg4_SSJCBdGx3hC_okzxjdTp6CwwtRh5pfvUY53IdIC0OQBMCldwoliF]--></g></svg>