<?xml version="1.0" encoding="us-ascii" standalone="no"?><svg xmlns="http://www.w3.org/2000/svg" xmlns:xlink="http://www.w3.org/1999/xlink" contentStyleType="text/css" height="1038px" preserveAspectRatio="none" style="width:580px;height:1038px;background:#FFFFFF;" version="1.1" viewBox="0 0 580 1038" width="580px" zoomAndPan="magnify"><defs/><g><!--cluster M?dulo de M?nager (MGR)--><g id="cluster_M&#243;dulo de M&#225;nager (MGR)"><rect fill="none" height="1025" rx="2.5" ry="2.5" style="stroke:#181818;stroke-width:1.0;" width="274" x="111" y="7"/><text fill="#000000" font-family="sans-serif" font-size="14" font-weight="bold" lengthAdjust="spacing" textLength="185" x="155.5" y="23.9659">M&#243;dulo de M&#225;nager (MGR)</text></g><!--cluster Sistemas Externos--><g id="cluster_Sistemas Externos"><rect fill="none" height="724" rx="2.5" ry="2.5" style="stroke:#181818;stroke-width:1.0;" width="161" x="413" y="59"/><text fill="#000000" font-family="sans-serif" font-size="14" font-weight="bold" lengthAdjust="spacing" textLength="127" x="430" y="75.9659">Sistemas Externos</text></g><g id="elem_CUMGR001"><ellipse cx="248.1457" cy="686.9492" fill="#F1F1F1" rx="87.1457" ry="43.4492" style="stroke:#181818;stroke-width:0.5;"/><text fill="#000000" font-family="sans-serif" font-size="14" lengthAdjust="spacing" textLength="89" x="203.6457" y="671.3132">CU-MGR-001:</text><text fill="#000000" font-family="sans-serif" font-size="14" lengthAdjust="spacing" textLength="107" x="194.6457" y="690.3811">Autenticar en el</text><text fill="#000000" font-family="sans-serif" font-size="14" lengthAdjust="spacing" textLength="53" x="221.6457" y="709.4491">Sistema</text></g><g id="elem_CUMGR002"><ellipse cx="248.1016" cy="795.9661" fill="#F1F1F1" rx="112.6016" ry="29.9661" style="stroke:#181818;stroke-width:0.5;"/><text fill="#000000" font-family="sans-serif" font-size="14" lengthAdjust="spacing" textLength="89" x="203.6016" y="789.8641">CU-MGR-002:</text><text fill="#000000" font-family="sans-serif" font-size="14" lengthAdjust="spacing" textLength="143" x="176.6016" y="808.932">Consultar Dashboard</text></g><g id="elem_CUMGR003"><ellipse cx="248.1518" cy="169.9661" fill="#F1F1F1" rx="107.6518" ry="29.9661" style="stroke:#181818;stroke-width:0.5;"/><text fill="#000000" font-family="sans-serif" font-size="14" lengthAdjust="spacing" textLength="89" x="203.6518" y="163.8641">CU-MGR-003:</text><text fill="#000000" font-family="sans-serif" font-size="14" lengthAdjust="spacing" textLength="136" x="180.1518" y="182.932">Gestionar Empleado</text></g><g id="elem_CUMGR004"><ellipse cx="248.0599" cy="74.9661" fill="#F1F1F1" rx="88.5599" ry="29.9661" style="stroke:#181818;stroke-width:0.5;"/><text fill="#000000" font-family="sans-serif" font-size="14" lengthAdjust="spacing" textLength="89" x="203.5599" y="68.8641">CU-MGR-004:</text><text fill="#000000" font-family="sans-serif" font-size="14" lengthAdjust="spacing" textLength="109" x="193.5599" y="87.932">Asociar Estaci&#243;n</text></g><g id="elem_CUMGR005"><ellipse cx="248.2021" cy="577.9661" fill="#F1F1F1" rx="102.7021" ry="29.9661" style="stroke:#181818;stroke-width:0.5;"/><text fill="#000000" font-family="sans-serif" font-size="14" lengthAdjust="spacing" textLength="89" x="203.7021" y="571.8641">CU-MGR-005:</text><text fill="#000000" font-family="sans-serif" font-size="14" lengthAdjust="spacing" textLength="129" x="183.7021" y="590.932">Gestionar Producto</text></g><g id="elem_CUMGR006"><ellipse cx="248.1604" cy="264.9661" fill="#F1F1F1" rx="78.6604" ry="29.9661" style="stroke:#181818;stroke-width:0.5;"/><text fill="#000000" font-family="sans-serif" font-size="14" lengthAdjust="spacing" textLength="89" x="203.6604" y="258.8641">CU-MGR-006:</text><text fill="#000000" font-family="sans-serif" font-size="14" lengthAdjust="spacing" textLength="95" x="200.6604" y="277.932">Definir Receta</text></g><g id="elem_CUMGR007"><ellipse cx="248.0868" cy="890.9661" fill="#F1F1F1" rx="121.0868" ry="29.9661" style="stroke:#181818;stroke-width:0.5;"/><text fill="#000000" font-family="sans-serif" font-size="14" lengthAdjust="spacing" textLength="89" x="203.5868" y="884.8641">CU-MGR-007:</text><text fill="#000000" font-family="sans-serif" font-size="14" lengthAdjust="spacing" textLength="155" x="170.5868" y="903.932">Gestionar Promociones</text></g><g id="elem_CUMGR008"><ellipse cx="248.066" cy="985.9661" fill="#F1F1F1" rx="109.066" ry="29.9661" style="stroke:#181818;stroke-width:0.5;"/><text fill="#000000" font-family="sans-serif" font-size="14" lengthAdjust="spacing" textLength="89" x="203.566" y="979.8641">CU-MGR-008:</text><text fill="#000000" font-family="sans-serif" font-size="14" lengthAdjust="spacing" textLength="138" x="179.066" y="998.932">Gestionar Inventario</text></g><g id="elem_CUMGR009"><ellipse cx="247.9092" cy="373.9492" fill="#F1F1F1" rx="103.4092" ry="43.4492" style="stroke:#181818;stroke-width:0.5;"/><text fill="#000000" font-family="sans-serif" font-size="14" lengthAdjust="spacing" textLength="89" x="203.4092" y="358.3132">CU-MGR-009:</text><text fill="#000000" font-family="sans-serif" font-size="14" lengthAdjust="spacing" textLength="130" x="182.9092" y="377.3811">Configurar Sistema</text><text fill="#000000" font-family="sans-serif" font-size="14" lengthAdjust="spacing" textLength="43" x="226.4092" y="396.4491">Global</text></g><g id="elem_CUMGR010"><ellipse cx="247.9802" cy="482.9661" fill="#F1F1F1" rx="110.4802" ry="29.9661" style="stroke:#181818;stroke-width:0.5;"/><text fill="#000000" font-family="sans-serif" font-size="14" lengthAdjust="spacing" textLength="89" x="203.4802" y="476.8641">CU-MGR-010:</text><text fill="#000000" font-family="sans-serif" font-size="14" lengthAdjust="spacing" textLength="140" x="177.9802" y="495.932">Gestionar Estaciones</text></g><!--entity SMTP--><g id="elem_SMTP"><ellipse cx="493.5" cy="124.5679" fill="#F1F1F1" rx="8" ry="8" style="stroke:#181818;stroke-width:0.5;"/><path d="M493.5,132.5679 L493.5,159.5679 M480.5,140.5679 L506.5,140.5679 M493.5,159.5679 L480.5,174.5679 M493.5,159.5679 L506.5,174.5679 " fill="none" style="stroke:#181818;stroke-width:0.5;"/><text fill="#000000" font-family="sans-serif" font-size="14" lengthAdjust="spacing" textLength="97" x="445" y="191.0339">Servidor SMTP</text><text fill="#000000" font-family="sans-serif" font-size="14" font-style="italic" lengthAdjust="spacing" textLength="58" x="464.5" y="111.9659">&#171;System&#187;</text></g><!--entity KDS--><g id="elem_KDS"><ellipse cx="493.5" cy="258.0679" fill="#F1F1F1" rx="8" ry="8" style="stroke:#181818;stroke-width:0.5;"/><path d="M493.5,266.0679 L493.5,293.0679 M480.5,274.0679 L506.5,274.0679 M493.5,293.0679 L480.5,308.0679 M493.5,293.0679 L506.5,308.0679 " fill="none" style="stroke:#181818;stroke-width:0.5;"/><text fill="#000000" font-family="sans-serif" font-size="14" lengthAdjust="spacing" textLength="121" x="433" y="324.5339">M&#243;dulo de Cocina</text><text fill="#000000" font-family="sans-serif" font-size="14" lengthAdjust="spacing" textLength="35" x="433" y="343.6018">(KDS)</text><text fill="#000000" font-family="sans-serif" font-size="14" font-style="italic" lengthAdjust="spacing" textLength="58" x="464.5" y="245.4659">&#171;System&#187;</text></g><!--entity cliente--><g id="elem_cliente"><ellipse cx="493.5" cy="696.5679" fill="#F1F1F1" rx="8" ry="8" style="stroke:#181818;stroke-width:0.5;"/><path d="M493.5,704.5679 L493.5,731.5679 M480.5,712.5679 L506.5,712.5679 M493.5,731.5679 L480.5,746.5679 M493.5,731.5679 L506.5,746.5679 " fill="none" style="stroke:#181818;stroke-width:0.5;"/><text fill="#000000" font-family="sans-serif" font-size="14" lengthAdjust="spacing" textLength="127" x="430" y="763.0339">M&#243;dulo del Cliente</text><text fill="#000000" font-family="sans-serif" font-size="14" font-style="italic" lengthAdjust="spacing" textLength="58" x="464.5" y="683.9659">&#171;System&#187;</text></g><!--entity pos--><g id="elem_pos"><ellipse cx="493.5" cy="544.0679" fill="#F1F1F1" rx="8" ry="8" style="stroke:#181818;stroke-width:0.5;"/><path d="M493.5,552.0679 L493.5,579.0679 M480.5,560.0679 L506.5,560.0679 M493.5,579.0679 L480.5,594.0679 M493.5,579.0679 L506.5,594.0679 " fill="none" style="stroke:#181818;stroke-width:0.5;"/><text fill="#000000" font-family="sans-serif" font-size="14" lengthAdjust="spacing" textLength="105" x="441" y="610.5339">M&#243;dulo de Caja</text><text fill="#000000" font-family="sans-serif" font-size="14" lengthAdjust="spacing" textLength="35" x="441" y="629.6018">(POS)</text><text fill="#000000" font-family="sans-serif" font-size="14" font-style="italic" lengthAdjust="spacing" textLength="58" x="464.5" y="531.4659">&#171;System&#187;</text></g><!--entity entrega--><g id="elem_entrega"><ellipse cx="493.5" cy="410.5679" fill="#F1F1F1" rx="8" ry="8" style="stroke:#181818;stroke-width:0.5;"/><path d="M493.5,418.5679 L493.5,445.5679 M480.5,426.5679 L506.5,426.5679 M493.5,445.5679 L480.5,460.5679 M493.5,445.5679 L506.5,460.5679 " fill="none" style="stroke:#181818;stroke-width:0.5;"/><text fill="#000000" font-family="sans-serif" font-size="14" lengthAdjust="spacing" textLength="129" x="429" y="477.0339">M&#243;dulo de Entrega</text><text fill="#000000" font-family="sans-serif" font-size="14" font-style="italic" lengthAdjust="spacing" textLength="58" x="464.5" y="397.9659">&#171;System&#187;</text></g><!--entity manager--><g id="elem_manager"><ellipse cx="36.5" cy="602" fill="#F1F1F1" rx="8" ry="8" style="stroke:#181818;stroke-width:0.5;"/><path d="M36.5,610 L36.5,637 M23.5,618 L49.5,618 M36.5,637 L23.5,652 M36.5,637 L49.5,652 " fill="none" style="stroke:#181818;stroke-width:0.5;"/><text fill="#000000" font-family="sans-serif" font-size="14" lengthAdjust="spacing" textLength="61" x="6" y="668.4659">Manager</text></g><!--link CUMGR003 to CUMGR004--><g id="link_CUMGR003_CUMGR004"><path d="M248,139.94 C248,128.85 248,122.29 248,111.19 " fill="none" id="CUMGR003-to-CUMGR004" style="stroke:#181818;stroke-width:1.0;stroke-dasharray:7.0,7.0;"/><polygon fill="#181818" points="248,105.19,244,114.19,248,110.19,252,114.19,248,105.19" style="stroke:#181818;stroke-width:1.0;"/><text fill="#000000" font-family="sans-serif" font-size="13" lengthAdjust="spacing" textLength="57" x="249" y="123.217">&#171;include&#187;</text></g><!--link CUMGR005 to CUMGR006--><g id="link_CUMGR005_CUMGR006"><path d="M148.51,570.75 C139.11,570.75 133,570.75 133,570.75 C133,570.75 133,265 133,265 C133,265 143.17,265 163.39,265 " fill="none" id="CUMGR005-to-CUMGR006" style="stroke:#181818;stroke-width:1.0;stroke-dasharray:7.0,7.0;"/><polygon fill="#181818" points="169.39,265,160.39,261,164.39,265,160.39,269,169.39,265" style="stroke:#181818;stroke-width:1.0;"/><text fill="#000000" font-family="sans-serif" font-size="13" lengthAdjust="spacing" textLength="57" x="75" y="422.337">&#171;include&#187;</text></g><!--link manager to CUMGR001--><g id="link_manager_CUMGR001"><path d="M67.25,650.75 C101.97,650.75 158.9,650.75 199.59,650.75 " fill="none" id="manager-CUMGR001" style="stroke:#181818;stroke-width:1.0;"/></g><!--link manager to CUMGR002--><g id="link_manager_CUMGR002"><path d="M67.01,658 C97.85,658 141,658 141,658 C141,658 141,755.34 141,786.51 " fill="none" id="manager-CUMGR002" style="stroke:#181818;stroke-width:1.0;"/></g><!--link manager to CUMGR003--><g id="link_manager_CUMGR003"><path d="M27,593.12 C27,480.82 27,170 27,170 C27,170 84.21,170 140.41,170 " fill="none" id="manager-CUMGR003" style="stroke:#181818;stroke-width:1.0;"/></g><!--link manager to CUMGR005--><g id="link_manager_CUMGR005"><path d="M67.25,603.17 C99.91,603.17 152.21,603.17 192.17,603.17 " fill="none" id="manager-CUMGR005" style="stroke:#181818;stroke-width:1.0;"/></g><!--link manager to CUMGR007--><g id="link_manager_CUMGR007"><path d="M67.12,665.25 C94.38,665.25 130,665.25 130,665.25 C130,665.25 130,845.89 130,884 " fill="none" id="manager-CUMGR007" style="stroke:#181818;stroke-width:1.0;"/></g><!--link manager to CUMGR008--><g id="link_manager_CUMGR008"><path d="M37,672.81 C37,765.13 37,986 37,986 C37,986 87.31,986 138.79,986 " fill="none" id="manager-CUMGR008" style="stroke:#181818;stroke-width:1.0;"/></g><!--link manager to CUMGR009--><g id="link_manager_CUMGR009"><path d="M47,593.38 C47,520.83 47,374 47,374 C47,374 95.11,374 144.26,374 " fill="none" id="manager-CUMGR009" style="stroke:#181818;stroke-width:1.0;"/></g><!--link manager to CUMGR010--><g id="link_manager_CUMGR010"><path d="M67.02,598.33 C98.49,598.33 143,598.33 143,598.33 C143,598.33 143,519.98 143,492.44 " fill="none" id="manager-CUMGR010" style="stroke:#181818;stroke-width:1.0;"/></g><!--link CUMGR003 to SMTP--><g id="link_CUMGR003_SMTP"><path d="M355.32,167.5 C386.55,167.5 419.12,167.5 444.8,167.5 " fill="none" id="CUMGR003-SMTP" style="stroke:#181818;stroke-width:1.0;"/></g><!--link CUMGR006 to KDS--><g id="link_CUMGR006_KDS"><path d="M326.69,265 C361.05,265 400.72,265 432.76,265 " fill="none" id="CUMGR006-KDS" style="stroke:#181818;stroke-width:1.0;"/></g><!--link CUMGR007 to cliente--><g id="link_CUMGR007_cliente"><path d="M367,885.23 C367,858.52 367,748.25 367,748.25 C367,748.25 398.38,748.25 429.88,748.25 " fill="none" id="CUMGR007-cliente" style="stroke:#181818;stroke-width:1.0;"/></g><!--link CUMGR007 to pos--><g id="link_CUMGR007_pos"><path d="M364,882.31 C364,836.06 364,620.75 364,620.75 C364,620.75 404.97,620.75 440.83,620.75 " fill="none" id="CUMGR007-pos" style="stroke:#181818;stroke-width:1.0;"/></g><!--link CUMGR009 to KDS--><g id="link_CUMGR009_KDS"><path d="M309.63,339 C347.27,339 395.2,339 432.69,339 " fill="none" id="CUMGR009-KDS" style="stroke:#181818;stroke-width:1.0;"/></g><!--link CUMGR009 to cliente--><g id="link_CUMGR009_cliente"><path d="M310.26,408.88 C348.03,408.88 389,408.88 389,408.88 C389,408.88 389,699.75 389,699.75 C389,699.75 407.94,699.75 429.7,699.75 " fill="none" id="CUMGR009-cliente" style="stroke:#181818;stroke-width:1.0;"/></g><!--link CUMGR009 to pos--><g id="link_CUMGR009_pos"><path d="M330.86,400.25 C370.31,400.25 409,400.25 409,400.25 C409,400.25 409,532.25 409,532.25 C409,532.25 423.76,532.25 440.95,532.25 " fill="none" id="CUMGR009-pos" style="stroke:#181818;stroke-width:1.0;"/></g><!--link CUMGR009 to entrega--><g id="link_CUMGR009_entrega"><path d="M342.92,391.62 C371.66,391.62 402.55,391.62 428.82,391.62 " fill="none" id="CUMGR009-entrega" style="stroke:#181818;stroke-width:1.0;"/></g><!--SRC=[ZPDBRjim48RtEiN0gsJXme_ueI0m4CX6K1H6ZQZPPSD8OvajHHea5JGeUfYU8KVmnJgKP8To92HU3N_DDpEUXy2j1Qj0ysnd8UKQ4ykL30BpYyizqom7mINQbps2qdQdWe0bLcdehPba6UeUC0DvPGU1mvdC1DBtmsjQ20Kfmlhmh_mE5-kx-yiU_0c0VeN1X1doZ1xwfFS7W-7rexmjB4hB4wO19Q1ub34t5dDM9eeUo9CSEmACA42af2c49Nx9pEv9CPtwwAW37HDwXyRzUK9N-LuWIvLFZZl8ArUrKGbtdB4iuOTNwODN7U2aaNAZLLfGQtroqa5EYLpYbakkuHuJj8tkJ3kesNc-d8fM4eqFpphWUGF-AfzfIappHhdp3ZQinhBbMQ49hWTAyOHwOiAF4BP760wQqocxV5RvS12Ky75Qy6Ln6W1SmyqDbuaeKbmiVBU9vpOzS_lRsEUwQWEhtnQrLAPNhN5z3Z7gPvwI5Qz_RCgod47nuXV7rLcFj_Ds6n7DG58lBhujuykI8-D3J40aE4q0IoAfx4yaOpzTgittEjLUcO-XbRGQish3iB9zYBfKdp_q-sy7-buRjMZZ5ctIeirQj7cB5hxNt5wSTe9KDvRWD74IgD_7zyozwsusD6hKyHsUCM4B4xOnTU_-0m00]--></g></svg>